<svg width="120" height="102" viewBox="0 0 120 102" fill="none" xmlns="http://www.w3.org/2000/svg">
<path d="M32.0019 19.3295C32.7586 19.2911 33.517 19.3044 34.2719 19.3694C34.5103 19.4036 34.7486 19.8423 34.8849 20.1442C36.4512 23.6649 38.008 27.1932 39.5555 30.7291C40.0889 31.9369 40.6054 33.1617 41.1899 34.3467C41.4592 34.7376 41.7756 35.0935 42.132 35.4063H38.9085C38.9085 35.3266 38.9085 35.2639 38.9085 35.2582C39.5328 34.9449 39.4193 34.5119 39.1582 34.0049C38.8347 33.3725 38.5566 32.7174 38.2615 32.0736C38.208 31.9294 38.108 31.8074 37.9774 31.7268C37.8468 31.6463 37.6931 31.612 37.5408 31.6293C36.4058 31.6293 35.2708 31.6293 34.1357 31.6293C33.994 31.6089 33.8496 31.6394 33.7281 31.7155C33.6066 31.7916 33.5158 31.9084 33.4718 32.0451C33.1823 32.7573 32.8702 33.458 32.5581 34.1587C32.3765 34.5632 32.2573 34.9335 32.8191 35.1329C32.8702 35.1329 32.8929 35.2525 32.9723 35.4006H30.8499C31.2146 34.9585 31.5466 34.4901 31.843 33.9992C32.2403 33.213 32.5467 32.3813 32.8929 31.5723C33.6363 29.8233 34.3457 28.063 35.1346 26.3368C35.458 25.6247 35.1346 25.0721 34.8962 24.491C34.3287 23.1579 33.6817 21.8419 33.0858 20.5031C32.9099 20.1043 32.7567 19.7283 32.263 19.6315C32.1949 19.6315 32.1495 19.5175 32.0019 19.3295ZM35.8326 26.7014C35.685 26.8267 35.6283 26.8552 35.6056 26.9008C35.1005 28.1028 34.5897 29.2992 34.0903 30.507C33.9201 30.9171 34.1811 31.0254 34.516 31.0254C35.4183 31.0254 36.3206 31.0254 37.223 31.0254C37.7054 31.0254 37.7167 30.7918 37.5465 30.4557C37.0925 29.4644 36.6498 28.4675 36.1958 27.4705C36.088 27.2198 35.9745 26.9919 35.8326 26.7014Z" fill="#F2F2F2"/>
<path d="M29.9589 66.1929C30.7154 66.1527 31.4739 66.1641 32.2289 66.2271C32.4673 66.267 32.7056 66.7056 32.8418 67.0076C34.4081 70.5283 35.965 74.0547 37.5124 77.5868C38.0459 78.8003 38.5623 80.0194 39.1469 81.2044C39.4159 81.5971 39.7323 81.955 40.0889 82.2697H36.8882C36.8882 82.1843 36.8882 82.1216 36.8882 82.1159C37.5124 81.8026 37.3989 81.3696 37.1379 80.8683C36.8144 80.2359 36.5363 79.5807 36.2469 78.937C36.1915 78.7929 36.0903 78.6713 35.9589 78.5909C35.8275 78.5105 35.6734 78.476 35.5205 78.4926C34.3854 78.4926 33.2504 78.4926 32.1154 78.4926C31.9725 78.4745 31.8277 78.5066 31.7056 78.5835C31.5836 78.6603 31.4918 78.7772 31.4457 78.9142C31.1563 79.6206 30.8442 80.327 30.5321 81.0278C30.3561 81.4323 30.2313 81.7969 30.7931 82.0019C30.8442 82.0019 30.8669 82.1216 30.9463 82.2697H28.8125C29.1731 81.8357 29.503 81.3769 29.8 80.8967C30.1972 80.1106 30.5037 79.2788 30.8499 78.4641C31.5933 76.7209 32.3027 74.9548 33.1199 73.2286C33.4491 72.5165 33.1199 71.9696 32.8815 71.3885C32.314 70.0554 31.6671 68.7394 31.0769 67.4006C30.8953 67.0019 30.742 66.6202 30.2483 66.529C30.1575 66.4948 30.1064 66.3752 29.9589 66.1929ZM33.7896 73.5591C33.6477 73.6901 33.5853 73.7186 33.5682 73.7641C33.0575 74.9662 32.5524 76.1626 32.053 77.3646C31.8771 77.7805 32.1381 77.883 32.4729 77.8887H35.1856C35.668 77.8887 35.6794 77.6552 35.5148 77.319C35.0551 76.3221 34.6124 75.3251 34.1584 74.3338C34.0506 74.0604 33.9314 73.8553 33.7896 73.5591Z" fill="#F2F2F2"/>
<path d="M79.0598 41.9695C79.8637 41.9271 80.6696 41.9405 81.4717 42.0093C81.7214 42.0492 81.9711 42.5107 82.113 42.824C83.7645 46.5384 85.3932 50.2301 87.0333 53.9673C87.6008 55.2434 88.14 56.5309 88.7359 57.7785C89.0173 58.1991 89.3511 58.582 89.729 58.9179H86.3239C86.3239 58.8325 86.3239 58.7641 86.3239 58.7584C86.9766 58.428 86.8574 57.9722 86.585 57.4424C86.2445 56.7816 85.9551 56.0865 85.6429 55.4086C85.5859 55.257 85.4802 55.1287 85.3425 55.0441C85.2048 54.9595 85.0429 54.9234 84.8825 54.9414C83.685 54.9414 82.4876 54.9414 81.2958 54.9414C81.1458 54.9192 80.9928 54.9511 80.8639 55.0314C80.7351 55.1117 80.6388 55.2353 80.5921 55.3801C80.2856 56.1264 79.9622 56.867 79.633 57.6076C79.44 58.0292 79.3152 58.4166 79.9054 58.6331C79.9622 58.6331 79.9792 58.7584 80.0643 58.9122H77.8453C78.2309 58.4482 78.58 57.9549 78.8896 57.4367C79.3095 56.6107 79.6273 55.7276 79.9905 54.8788C80.7737 53.0387 81.5228 51.1871 82.357 49.3698C82.6975 48.6178 82.357 48.0424 82.1017 47.4272C81.4831 46.0257 80.8248 44.6356 80.2005 43.2342C80.0132 42.8126 79.8543 42.4138 79.3322 42.317C79.2641 42.2885 79.213 42.1575 79.0598 41.9695ZM83.0891 49.7287C82.9359 49.8655 82.8735 49.8939 82.8565 49.9452C82.3192 51.2023 81.7857 52.4652 81.2561 53.7337C81.0801 54.1724 81.3526 54.3034 81.7044 54.3034H84.542C85.047 54.3034 85.0641 54.0641 84.8881 53.6824C84.4058 52.6342 83.9347 51.5859 83.4637 50.5377C83.3615 50.2756 83.2367 50.0364 83.0891 49.7287Z" fill="#F2F2F2"/>
<path d="M26.3552 18.8682V23.2149L26.1793 23.2491C26.1127 23.0794 26.0614 22.904 26.0261 22.725C25.99 22.2644 25.8613 21.8158 25.6477 21.4065C25.4341 20.9972 25.14 20.6357 24.7832 20.3437C23.6482 19.3752 20.4304 19.4891 19.9254 21.728C19.8212 22.1036 19.8233 22.5008 19.9316 22.8752C20.0398 23.2495 20.2499 23.5862 20.5383 23.8473C21.6733 24.8614 22.8991 25.7957 24.1249 26.6958C25.3508 27.5959 26.5709 28.4675 27.0533 29.9317C27.984 32.7801 26.5993 35.2127 23.6993 35.7312C22.5741 35.9306 21.4158 35.8081 20.3567 35.3779C19.88 35.1899 19.2784 34.9336 18.8641 35.6001C18.8244 35.6571 18.6598 35.7198 18.6258 35.6913C18.5444 35.6225 18.4934 35.5242 18.4839 35.4178C18.4839 34.2329 18.4839 33.0422 18.4839 31.8572C18.5146 31.6887 18.5742 31.5268 18.6598 31.3787C18.7506 31.5268 18.8925 31.6635 18.9095 31.823C18.9351 32.3631 19.0924 32.8886 19.3674 33.3535C19.6425 33.8183 20.027 34.2083 20.4872 34.4892C21.9797 35.3438 24.5449 34.8823 25.4245 33.6005C25.7298 33.1767 25.9021 32.671 25.9192 32.1483C25.9364 31.6256 25.7978 31.1097 25.521 30.6666C24.8286 29.3961 23.6312 28.6157 22.5529 27.7269C21.4747 26.8382 20.5099 26.0919 19.5849 25.1804C19.0872 24.6881 18.7511 24.0551 18.6213 23.3659C18.4915 22.6768 18.5742 21.9643 18.8584 21.3236C19.3465 20.0076 20.4304 19.3467 21.7868 19.0846C22.7922 18.8857 23.8321 18.9584 24.8003 19.2954C25.714 19.6373 25.7083 19.6486 26.3552 18.8682Z" fill="#F2F2F2"/>
<path d="M26.3552 41.9355V46.2766L26.1793 46.3108C26.1112 46.1416 26.0598 45.966 26.0261 45.7867C25.99 45.326 25.8613 44.8775 25.6477 44.4682C25.4341 44.0589 25.14 43.6974 24.7832 43.4054C23.6482 42.4369 20.4304 42.5508 19.9254 44.7897C19.8212 45.1652 19.8233 45.5625 19.9316 45.9369C20.0398 46.3112 20.2499 46.6479 20.5383 46.909C21.6733 47.923 22.8991 48.8573 24.1249 49.7575C25.3508 50.6576 26.5709 51.5292 27.0533 52.999C27.984 55.8475 26.5993 58.2744 23.6993 58.7928C22.5747 58.994 21.4164 58.8736 20.3567 58.4453C19.88 58.2573 19.2784 58.001 18.8641 58.6618C18.834 58.6946 18.797 58.7204 18.7558 58.7371C18.7146 58.7538 18.6702 58.7612 18.6258 58.7587C18.5453 58.6891 18.4945 58.5912 18.4839 58.4852C18.4839 57.2945 18.4839 56.1096 18.4839 54.9189C18.5146 54.7504 18.5742 54.5885 18.6598 54.4404C18.7506 54.5885 18.8925 54.7309 18.9095 54.8847C18.9357 55.4254 19.0931 55.9515 19.3681 56.4172C19.643 56.8829 20.0272 57.274 20.4872 57.5566C21.9797 58.4112 24.5449 57.944 25.4245 56.6622C25.7298 56.2384 25.9021 55.7327 25.9192 55.21C25.9364 54.6873 25.7978 54.1713 25.521 53.7283C24.8286 52.4635 23.6312 51.683 22.5529 50.7886C21.4747 49.8942 20.5099 49.1593 19.5849 48.2421C19.0915 47.758 18.7562 47.135 18.6235 46.4554C18.4907 45.7758 18.5667 45.0718 18.8414 44.4365C19.3295 43.1262 20.4134 42.4597 21.7698 42.1976C22.7751 41.9986 23.8151 42.0714 24.7832 42.4084C25.714 42.7274 25.7083 42.7274 26.3552 41.9355Z" fill="#F2F2F2"/>
<path d="M26.3552 65.7314V70.0725H26.1793C26.112 69.905 26.0607 69.7314 26.0261 69.5541C25.9834 69.1023 25.8515 68.6637 25.6381 68.2636C25.4247 67.8636 25.1341 67.5102 24.7832 67.224C23.6482 66.2499 20.4304 66.3695 19.9254 68.6084C19.8218 68.984 19.8243 69.381 19.9325 69.7553C20.0408 70.1295 20.2505 70.4662 20.5383 70.7277C21.6733 71.736 22.8991 72.676 24.1249 73.5762C25.3508 74.4763 26.5709 75.3479 27.0533 76.8177C27.984 79.6662 26.5993 82.0931 23.6993 82.6115C22.5747 82.8127 21.4164 82.6923 20.3567 82.264C19.88 82.076 19.2784 81.8196 18.8641 82.4805C18.8244 82.5432 18.6598 82.6058 18.6258 82.5773C18.5444 82.5086 18.4934 82.4103 18.4839 82.3039C18.4839 81.1189 18.4839 79.9283 18.4839 78.7433C18.5146 78.5748 18.5742 78.4129 18.6598 78.2648C18.7725 78.392 18.8576 78.5414 18.9095 78.7034C18.9357 79.2441 19.0931 79.7702 19.3681 80.2359C19.643 80.7016 20.0272 81.0927 20.4872 81.3753C21.9797 82.2298 24.5449 81.7627 25.4245 80.4866C25.7303 80.0619 25.9028 79.5552 25.92 79.0315C25.9372 78.5078 25.7983 77.9909 25.521 77.5469C24.8286 76.2822 23.6312 75.5017 22.5529 74.613C21.4747 73.7243 20.5099 72.978 19.5849 72.0608C19.0837 71.5707 18.7452 70.9375 18.6152 70.2474C18.4852 69.5574 18.5702 68.8438 18.8584 68.2039C19.3465 66.8936 20.4304 66.2328 21.7868 65.9707C22.7916 65.7699 23.8316 65.8407 24.8003 66.1758C25.714 66.4948 25.7083 66.5119 26.3552 65.7314Z" fill="#F2F2F2"/>
<path d="M70.2236 65.7314V70.0725H70.042C69.9747 69.905 69.9234 69.7314 69.8888 69.5541C69.8508 69.1036 69.7232 68.6653 69.5137 68.2651C69.3041 67.8649 69.0168 67.5109 68.6687 67.224C67.5336 66.2499 64.3159 66.3695 63.8051 68.6084C63.7016 68.984 63.704 69.381 63.8123 69.7553C63.9205 70.1295 64.1302 70.4662 64.418 70.7277C65.553 71.736 66.7845 72.676 68.0047 73.5762C69.2248 74.4763 70.4563 75.3479 70.9387 76.8177C71.8694 79.6662 70.479 82.0931 67.579 82.6115C66.4563 82.8129 65.2997 82.6924 64.2421 82.264C63.7597 82.076 63.1581 81.8197 62.7439 82.4805C62.7041 82.5432 62.5396 82.6058 62.5055 82.5774C62.466 82.543 62.4336 82.5012 62.4103 82.4543C62.3869 82.4073 62.373 82.3562 62.3693 82.3039C62.3693 81.1189 62.3409 79.9283 62.3693 78.7433C62.4047 78.5753 62.466 78.4138 62.5509 78.2648C62.6595 78.3949 62.7441 78.5434 62.8006 78.7034C62.8257 79.2437 62.982 79.7696 63.256 80.2354C63.53 80.7011 63.9134 81.0924 64.3726 81.3753C65.8708 82.2298 68.4303 81.7627 69.3099 80.4866C69.6166 80.0625 69.7901 79.5561 69.8083 79.0324C69.8265 78.5087 69.6885 77.9915 69.4121 77.5469C68.6687 76.2822 67.4769 75.5017 66.3986 74.6301C65.3204 73.7585 64.3556 72.9951 63.4362 72.0779C62.9351 71.5878 62.5965 70.9546 62.4666 70.2645C62.3366 69.5745 62.4215 68.8609 62.7098 68.221C63.1979 66.9107 64.2761 66.2499 65.6325 65.9878C66.6373 65.787 67.6773 65.8578 68.646 66.1929C69.5824 66.4948 69.5767 66.5119 70.2236 65.7314Z" fill="#F2F2F2"/>
<path d="M84.9393 17.8545V23.4147C84.8768 23.4147 84.7179 23.4147 84.6441 23.4147C84.6441 23.278 84.6442 23.0957 84.6044 22.9191C84.6096 22.4864 84.5197 22.0579 84.3412 21.664C84.1627 21.2702 83.8999 20.9207 83.5716 20.6403C83.1913 20.3213 82.3855 20.2643 81.7328 20.2187C81.591 20.2187 52.4096 20.1219 51.3313 20.1219C49.4472 20.1219 47.6198 21.2955 47.6198 22.4918C47.6091 23.1269 47.7274 23.7575 47.9674 24.3451C48.2074 24.9328 48.5642 25.4652 49.0159 25.91C49.8274 26.7759 51.3029 26.7759 54.3959 26.7759C56.4276 26.7759 73.3848 26.7019 77.38 26.7019C79.3039 26.7019 81.3526 26.5765 82.5444 27.2716C84.6158 28.4394 84.6725 30.12 84.5988 31.3107C84.525 32.5014 84.4625 33.1964 83.5716 34.0851C82.6369 34.8791 81.4687 35.3434 80.2459 35.4068H49.8217C49.0843 35.3874 48.356 35.237 47.6709 34.9625C47.1942 34.7745 46.5869 35.1106 46.1783 35.7771C46.1386 35.8398 45.9683 35.8968 45.94 35.8683C45.8992 35.8346 45.8656 35.7931 45.8412 35.7461C45.8168 35.6991 45.8022 35.6476 45.7981 35.5948C45.7981 34.4099 45.7981 31.6069 45.7981 30.422C45.8288 30.2535 45.8884 30.0916 45.974 29.9434C46.0816 30.0764 46.166 30.2266 46.2237 30.3878C46.3713 31.5272 46.3997 32.8375 47.4325 33.43C48.1716 33.7058 48.9626 33.8129 49.748 33.7433H80.28C81.415 33.6636 81.9088 33.4585 82.3401 33.0882C82.6216 32.7989 82.8401 32.454 82.9818 32.0755C83.1234 31.6969 83.1851 31.2929 83.1629 30.8891C83.1957 30.445 83.0926 30.0013 82.8675 29.6175C82.6424 29.2337 82.3059 28.9281 81.9031 28.7414C81.2845 28.428 80.3254 28.5078 78.498 28.5135H53.7035C50.2984 28.5135 49.1975 27.7159 48.0284 26.4683C47.5036 25.9564 47.0889 25.342 46.8097 24.663C46.5306 23.984 46.3929 23.2548 46.4053 22.5203C46.4053 20.6631 48.4143 18.3558 51.2519 18.2932C51.7797 18.2932 78.2256 18.2932 79.3436 18.2932C79.9111 18.2932 81.8861 18.4242 82.4819 18.447C84.0426 18.4982 84.2923 18.6293 84.9393 17.8545Z" fill="#F2F2F2"/>
<path d="M60.3831 42.2261C60.786 42.2261 61.1946 42.2261 61.6032 42.2261C63.6463 42.2773 68.0048 42.2887 70.0421 42.4141C71.2112 42.4824 72.5789 42.9838 73.0045 44.1232C74.0204 46.8235 73.0045 48.7206 69.8548 49.2504C69.4689 49.3131 66.7619 49.3302 66.1717 49.3815C68.3736 52.6173 70.0818 55.9785 72.4143 58.9751H69.2362C70.1159 58.3029 69.4406 57.7788 69.1284 57.266C67.4259 54.5315 65.7234 51.8027 64.0208 49.0738C63.9299 48.9007 63.8503 48.7218 63.7825 48.5383C64.0719 48.5383 64.2649 48.5383 64.4465 48.5383C65.3829 48.4699 68.6404 48.4528 69.5541 48.3161C71.5176 48.0199 71.6936 45.9234 71.2566 44.6815C70.8934 43.5819 69.957 43.2629 68.9865 43.149C67.8004 43.0009 64.2762 43.0578 63.0731 43.035C62.6758 43.035 62.7099 43.3256 62.7099 43.6047C62.7099 44.972 62.7099 46.3336 62.7099 47.6952C62.7099 50.9823 62.7099 54.2694 62.7099 57.5566C62.7099 58.0351 62.6758 58.4909 63.2774 58.696C63.3398 58.696 63.3682 58.8498 63.4533 59.015H60.2299C60.2639 58.884 60.2639 58.7586 60.3036 58.7416C61.0074 58.4966 60.9165 57.9269 60.9165 57.3572C60.9165 52.9098 60.9165 48.4604 60.9165 44.0092C60.9165 43.4053 61.0811 42.7331 60.2299 42.4198L60.3831 42.2261Z" fill="#F2F2F2"/>
<path d="M88.3727 18.23H90.166C90.3987 18.23 90.6257 18.1959 90.8584 18.23C91.0498 18.2499 91.2395 18.2842 91.4259 18.3326C91.2709 18.4334 91.1298 18.554 91.0059 18.6915C90.8542 18.8476 90.7533 19.0462 90.7165 19.2612C90.7165 21.2437 90.7165 23.8643 90.7165 25.8469C90.7165 26.2172 90.8754 26.371 91.2329 26.371C93.6392 26.371 96.0454 26.371 98.4516 26.371C98.8262 26.371 98.9567 26.183 98.9567 25.8013C98.9567 23.8415 98.9567 21.2437 98.9567 19.2783C98.9567 19.0504 98.7127 18.8111 98.5368 18.6117C98.463 18.5263 98.2814 18.532 98.1509 18.4978L98.3381 18.2357H101.448C101.312 18.4009 101.249 18.5605 101.147 18.5889C100.71 18.7143 100.688 19.0333 100.688 19.4036C100.688 23.9954 100.688 29.6581 100.688 34.2157C100.688 34.4607 100.937 34.717 101.091 34.9506C101.223 35.0968 101.368 35.232 101.522 35.3551H98.2927C98.3495 35.2241 98.3665 35.0702 98.4289 35.0475C98.9454 34.8367 98.9965 34.4265 98.9624 33.9536C98.9624 32.0736 98.9624 29.7778 98.9624 27.8978C98.9624 27.368 98.8319 27.1401 98.2473 27.1458C95.9773 27.18 93.7073 27.1458 91.4372 27.1458C90.8697 27.1458 90.7108 27.3167 90.7222 27.875C90.7505 29.7607 90.7222 32.0509 90.7222 33.9366C90.7222 34.4322 90.7222 34.8595 91.2897 35.0133C91.3578 35.0133 91.3918 35.1557 91.511 35.3266H88.3159C88.35 35.2298 88.3556 35.1158 88.3954 35.1044C89.1275 34.8652 89.048 34.2784 89.048 33.6916C89.048 29.3277 89.048 23.9099 89.048 19.546C89.048 19.0732 89.048 18.6516 88.4805 18.5206C88.4351 18.5206 88.401 18.4408 88.3727 18.3895C88.3443 18.3383 88.3727 18.3554 88.3727 18.23Z" fill="#F2F2F2"/>
<path d="M38.4318 48.9939V50.2757C37.9324 50.2244 37.4557 50.1333 37.0244 50.1333C35.9858 50.1333 34.9473 50.1333 33.9087 50.1333C33.4434 50.1333 33.2504 50.2757 33.2561 50.7599C33.2561 53.0387 33.2561 55.3061 33.2561 57.5621C33.2561 57.9666 33.432 58.1318 33.8236 58.1318C36.4796 58.1318 39.1355 58.1318 41.7687 58.1318C42.1548 58.1526 42.5394 58.0703 42.8834 57.8931C43.2274 57.716 43.5184 57.4504 43.7267 57.1234C43.8175 56.9778 43.9009 56.8276 43.9764 56.6734L44.209 56.85C44.1466 57.0152 44.0615 57.1804 44.0104 57.3513C43.6188 58.6559 42.7903 59.0604 41.4055 58.9806C38.3296 58.8496 35.2481 58.9408 32.1665 58.9408H30.8896C30.8896 58.8382 30.8896 58.73 30.952 58.7129C31.6103 58.4337 31.5195 57.8868 31.5195 57.3114C31.5195 52.9704 31.5195 48.1621 31.5195 43.821C31.5195 43.3083 31.5195 42.8583 30.952 42.6817C30.9123 42.6817 30.9066 42.5563 30.8499 42.4082H31.7806C34.3003 42.4082 36.8201 42.4082 39.3398 42.4082C39.5571 42.3806 39.7774 42.4267 39.9656 42.5392C40.1538 42.6517 40.2991 42.8242 40.3784 43.0292C40.5486 43.3938 40.7699 43.7299 40.9459 44.0888C41.002 44.2266 41.0438 44.3697 41.0707 44.5161L40.7813 44.744C40.7145 44.5637 40.6349 44.3885 40.5429 44.2198C40.354 43.9142 40.0883 43.6639 39.7726 43.4939C39.4568 43.3239 39.102 43.2402 38.7439 43.2513C37.0868 43.2513 35.4297 43.2513 33.7782 43.2513C33.415 43.2513 33.2504 43.3995 33.2504 43.7698C33.2504 45.325 33.2504 47.3418 33.2504 48.897C33.2504 49.2673 33.4093 49.4212 33.7725 49.4212C35.0381 49.4212 36.3093 49.4212 37.5805 49.4212C37.8819 49.3171 38.1681 49.1735 38.4318 48.9939Z" fill="#F2F2F2"/>
<path d="M53.3743 42.2031H55.423C55.423 42.2487 55.4571 42.3114 55.423 42.3171C54.7193 42.7102 54.8555 43.3767 54.8555 44.0261C54.8555 47.5412 54.8555 51.5233 54.8555 55.0384C54.896 56.0054 54.6554 56.9634 54.1631 57.7957C53.9885 58.1427 53.7252 58.4368 53.4001 58.648C53.075 58.8592 52.6999 58.9799 52.313 58.9977C51.511 59.0528 50.7052 59.0127 49.9125 58.8781C48.2894 58.485 47.4552 57.2089 47.4438 55.2947C47.4438 51.6999 47.4438 47.6437 47.4438 44.0489C47.4438 43.4052 47.6822 42.6646 46.7061 42.3399L46.8366 42.2145H49.7082C49.7082 42.2658 49.7082 42.3854 49.7082 42.3968C49.0839 42.6646 49.1407 43.1887 49.1407 43.747C49.1407 47.3418 49.1407 51.398 49.1407 54.9928C49.1229 55.6071 49.2014 56.2203 49.3733 56.8101C49.7309 57.9096 50.6843 58.3996 51.9555 58.2571C52.4895 58.217 52.9909 57.9844 53.3674 57.6022C53.7439 57.2201 53.9701 56.7142 54.0042 56.1778C54.0553 55.7582 54.0781 55.3357 54.0723 54.913C54.0723 51.1986 54.0723 47.0284 54.0723 43.3197C54.0958 43.1579 54.0665 42.9927 53.9888 42.8489C53.911 42.7052 53.789 42.5905 53.641 42.5222C53.5616 42.4823 53.5105 42.3683 53.3743 42.2031Z" fill="#F2F2F2"/>
<path d="M91.4771 44.2142C91.8403 43.5761 92.1864 42.9323 92.578 42.3114C92.6405 42.2088 92.8845 42.186 93.0491 42.186C95.3929 42.186 97.7424 42.186 100.092 42.186C100.199 42.1886 100.304 42.2125 100.401 42.2566C100.499 42.3006 100.587 42.3638 100.659 42.4424C101 42.9551 101.278 43.502 101.567 44.0432C101.601 44.1059 101.567 44.2085 101.533 44.4477C101.301 44.1914 101.147 44.0375 101.011 43.878C100.613 43.4726 100.115 43.1796 99.5683 43.0286C99.0214 42.8775 98.4444 42.8738 97.8956 43.0178C97.47 43.1773 97.4189 43.5077 97.4189 43.9008C97.4189 47.0911 97.4189 50.9764 97.4189 54.1553C97.4189 55.2947 97.4189 56.3885 97.4189 57.4995C97.4189 57.9894 97.3394 58.485 97.9864 58.6388C98.0318 58.6388 98.0488 58.7585 98.1226 58.9066H94.9843C95.041 58.7756 95.0637 58.6388 95.1205 58.6275C95.7391 58.4736 95.7391 58.0122 95.7391 57.4881C95.7391 53.1983 95.7391 48.2248 95.7391 43.9407C95.7391 43.1488 95.5348 42.9494 94.7686 42.9209C93.5939 42.8754 92.5383 43.0691 91.8516 44.1629C91.8062 44.2312 91.67 44.2369 91.5792 44.2768L91.4771 44.2142Z" fill="#F2F2F2"/>
<path d="M52.296 66.3013C53.0111 66.3013 53.7318 66.3013 54.4469 66.3013C54.5718 66.3013 54.742 66.5405 54.7931 66.7001C55.0825 67.6116 55.3606 68.5345 55.6046 69.4574C55.9281 70.5968 56.2346 71.7874 56.5524 72.9553C57.2901 75.6956 58.0222 78.4415 58.794 81.1703C58.8848 81.478 59.2026 81.74 59.424 81.9907C59.5564 82.119 59.6966 82.2389 59.8439 82.3496H56.507C56.507 82.2926 56.507 82.23 56.507 82.2243C57.4944 81.7229 56.8191 80.9766 56.6772 80.424C55.9849 77.6895 55.1903 74.9834 54.4412 72.266C54.3674 72.0096 54.3618 71.7362 54.288 71.4798C54.227 71.354 54.1465 71.2386 54.0496 71.138C53.9702 71.2462 53.8397 71.3488 53.8056 71.4741C53.6183 72.1577 53.4651 72.8528 53.2835 73.5364L51.2972 80.8969C51.2422 81.2363 51.1568 81.5699 51.0418 81.8938C50.9866 82.012 50.9077 82.1175 50.81 82.2038C50.7124 82.29 50.5981 82.3552 50.4743 82.3952C50.3211 82.3952 50.026 82.1217 49.9636 81.9166C49.589 80.6861 49.2655 79.4442 48.9307 78.2022C48.3291 75.9804 47.7389 73.7529 47.1374 71.5368C47.0733 71.3931 46.9872 71.2604 46.882 71.1437C46.7791 71.2632 46.6949 71.3976 46.6323 71.5425C46.201 73.1718 45.7867 74.8068 45.3554 76.4362C44.9241 78.0655 44.4303 79.7632 44.0274 81.4381C43.9707 81.6944 44.2544 82.0078 44.4076 82.3838H42.3079C42.3533 82.2641 42.3646 82.1787 42.3987 82.1673C43.1307 81.9793 43.2216 81.3583 43.3805 80.7658C43.948 78.5212 44.5892 76.2823 45.1965 74.0377C45.5767 72.6306 45.9796 71.2291 46.3315 69.8163C46.5755 68.7738 46.1726 67.8167 45.7129 66.9165C45.6051 66.7058 45.293 66.6089 45.0773 66.4551L45.1227 66.307C45.8775 66.307 46.6266 66.307 47.3928 66.307C47.5063 66.307 47.6538 66.5747 47.6992 66.7399C48.3575 69.1023 49.0026 71.4703 49.6344 73.844C50.0317 75.3309 50.3835 76.8179 50.7694 78.3048C50.8439 78.4689 50.9373 78.6238 51.0475 78.7662C51.1553 78.5212 51.2348 78.3959 51.2745 78.2592C51.9045 75.9462 52.5401 73.6333 53.1643 71.326C53.3289 70.7107 53.4935 70.1011 53.624 69.4802C53.647 69.2715 53.6277 69.0602 53.5673 68.8592C53.4651 68.4319 53.3232 68.0104 53.2268 67.5831C53.1303 67.1558 52.9827 66.7684 52.5003 66.6374C52.3904 66.6035 52.2824 66.5635 52.1769 66.5178L52.296 66.3013Z" fill="#F2F2F2"/>
<path d="M81.9655 82.5658C77.6979 82.7709 73.4529 78.7033 73.4529 74.2197C73.4529 71.9534 74.3497 69.7798 75.9462 68.1772C77.5426 66.5746 79.7078 65.6743 81.9655 65.6743C84.2232 65.6743 86.3885 66.5746 87.9849 68.1772C89.5813 69.7798 90.4782 71.9534 90.4782 74.2197C90.5576 78.8229 86.2616 82.7766 81.9655 82.5658ZM75.4278 73.6899C75.3153 75.5759 75.8022 77.449 76.8182 79.0394C77.3786 79.8733 78.1307 80.5596 79.0109 81.0402C79.8912 81.5208 80.8738 81.7816 81.8757 81.8006C82.8775 81.8196 83.8693 81.5962 84.767 81.1493C85.6647 80.7024 86.4421 80.0452 87.0334 79.2331C88.0588 77.7479 88.6082 75.984 88.6082 74.177C88.6082 72.37 88.0588 70.6061 87.0334 69.121C84.6612 65.8281 79.4061 65.8338 77.0112 69.121C76.0222 70.4412 75.4687 72.0386 75.4278 73.6899Z" fill="#F2F2F2"/>
<path d="M94.9558 82.3495H92.7255C92.7766 82.2242 92.7879 82.1388 92.822 82.1274C93.5995 81.871 93.503 81.2386 93.4973 80.6177C93.4973 76.6982 93.4973 72.7787 93.4633 68.8591C93.461 68.4084 93.3434 67.9658 93.1218 67.5738C92.9002 67.1817 92.582 66.8534 92.1977 66.6202C92.1368 66.578 92.0831 66.526 92.0388 66.4664C92.0388 66.4664 92.0388 66.3924 92.0388 66.267C92.4807 66.3042 92.9249 66.3042 93.3668 66.267C94.1783 66.1303 94.5529 66.5177 94.8934 67.2013C96.3519 70.141 97.8672 73.0521 99.354 75.9746C99.5413 76.3392 99.7002 76.7096 99.8648 77.0799L100.024 77.0457C100.076 76.9399 100.11 76.8264 100.126 76.7095C100.126 73.9237 100.126 71.1379 100.08 68.3521C100.08 67.7027 100.381 66.9165 99.3257 66.6031L99.4789 66.4835H101.522C100.591 67.0247 100.954 67.9077 100.954 68.6484C100.954 73.0692 100.954 77.49 100.954 81.9052C100.939 82.0564 100.906 82.2054 100.858 82.3495L100.659 82.3837L94.4961 70.4201L94.3543 70.4543C94.3144 70.5647 94.2878 70.6794 94.2748 70.7961C94.2748 74.1801 94.3089 77.5584 94.2748 80.9424C94.2748 81.4494 94.2748 81.9052 94.8423 82.1217C94.8877 82.0989 94.8991 82.2071 94.9558 82.3495Z" fill="#F2F2F2"/>
<path d="M0 0V-2H-2V0H0ZM120 0H122V-2H120V0ZM120 101.053V103.053H122V101.053H120ZM0 101.053H-2V103.053H0V101.053ZM0 2H120V-2H0V2ZM118 0V101.053H122V0H118ZM120 99.0526H0V103.053H120V99.0526ZM2 101.053V0H-2V101.053H2Z" fill="#F2F2F2"/>
</svg>
